<svg width="30" height="30" viewBox="0 0 30 30" fill="none" xmlns="http://www.w3.org/2000/svg">
<path d="M25.6186 25.9947C23.8494 27.7977 21.6616 29.1194 19.257 29.8379C19.1884 29.7642 19.1349 29.6774 19.0995 29.5826C19.0642 29.4877 19.0478 29.3866 19.0513 29.2853V25.2526C19.0513 23.8739 18.5667 22.9619 18.057 22.5186C21.282 22.1496 24.7032 20.8919 24.7032 15.2267C24.7328 13.7568 24.1951 12.3333 23.2051 11.2605C23.3513 10.8699 23.859 9.36428 23.059 7.34309C23.059 7.34309 21.8455 6.95252 19.057 8.84678C16.6738 8.1906 14.1615 8.1906 11.7782 8.84678C8.98974 6.95056 7.77628 7.34309 7.77628 7.34309C6.97628 9.36428 7.4859 10.8582 7.63013 11.2605C6.64848 12.3383 6.11038 13.7568 6.12628 15.2248C6.12628 20.888 9.52244 22.1476 12.7744 22.5167C12.3378 22.8858 11.9724 23.5517 11.8282 24.4871C11.0032 24.8777 8.89167 25.5221 7.59744 23.2803C7.59744 23.2803 6.82821 21.8508 5.36475 21.7531C5.36475 21.7531 3.93398 21.7277 5.26859 22.6397C5.26859 22.6397 6.21474 23.1084 6.86859 24.8074C6.86859 24.8074 7.71859 27.4437 11.7686 26.5649V29.2989C11.7782 29.4487 11.7402 29.5976 11.6602 29.7238C11.5803 29.85 11.4625 29.9468 11.3244 30C8.11429 29.1761 5.26287 27.2968 3.21462 24.6551C1.16637 22.0134 0.0364009 18.7578 0.000864528 15.3957C-0.0346718 12.0336 1.02623 8.75407 3.01817 6.06834C5.01011 3.3826 7.82115 1.44159 11.0131 0.547917C14.205 -0.345759 17.5984 -0.141883 20.6642 1.12776C23.7301 2.39741 26.2961 4.66147 27.9623 7.56699C29.6285 10.4725 30.3012 13.8562 29.8755 17.1906C29.4498 20.5249 27.9497 23.6226 25.609 26.0006L25.6186 25.9947Z" fill="white"/>
</svg>
