<svg width="30" height="30" viewBox="0 0 30 30" fill="none" xmlns="http://www.w3.org/2000/svg">
<path fill-rule="evenodd" clip-rule="evenodd" d="M25.3878 25.3878C19.58 31.1957 10.1637 31.1957 4.35586 25.3878C-1.45195 19.58 -1.45195 10.1637 4.35586 4.35586C10.1637 -1.45195 19.58 -1.45195 25.3878 4.35586C31.1957 10.1637 31.1957 19.58 25.3878 25.3878ZM20.8671 16.5199C20.8671 14.1911 19.6789 13.1075 18.094 13.1075C16.8146 13.1075 16.2431 13.8444 15.923 14.3603V14.3848H15.9072C15.9118 14.377 15.9182 14.3683 15.923 14.3603V13.2856H13.5142C13.5466 13.9974 13.5142 20.8671 13.5142 20.8671H15.9233V16.6332C15.9233 16.4063 15.9396 16.1807 16.0032 16.0187C16.1774 15.5653 16.5734 15.0967 17.2388 15.0967C18.1105 15.0967 18.4589 15.7921 18.4589 16.811V20.8671H20.8671V16.5199ZM10.9942 9.63099C10.17 9.63099 9.63099 10.1967 9.63099 10.9406C9.63099 11.6684 10.1545 12.2512 10.9622 12.2512H10.9783C11.8184 12.2512 12.3409 11.6685 12.3409 10.9406C12.3251 10.1967 11.8184 9.63099 10.9942 9.63099ZM9.77407 20.8671H12.1822V13.2856H9.77407V20.8671Z" fill="white"/>
</svg>
